%TF.GenerationSoftware,Altium Limited,Altium Designer,24.1.2 (44)*%
G04 Layer_Physical_Order=1*
G04 Layer_Color=255*
%FSLAX45Y45*%
%MOMM*%
%TF.SameCoordinates,D40106D2-5846-4758-920C-99A56FEE523B*%
%TF.FilePolarity,Positive*%
%TF.FileFunction,Copper,L1,Top,Signal*%
%TF.Part,Single*%
G01*
G75*
%TA.AperFunction,SMDPad,CuDef*%
%ADD10O,0.45000X1.60000*%
%TA.AperFunction,ConnectorPad*%
%ADD11R,1.80000X2.65000*%
%TA.AperFunction,SMDPad,CuDef*%
%ADD12R,1.55000X1.50000*%
%TA.AperFunction,Conductor*%
%ADD13C,0.38100*%
%TA.AperFunction,ComponentPad*%
%ADD14C,1.60000*%
%ADD15R,1.60000X1.60000*%
%TA.AperFunction,ViaPad*%
%ADD16C,1.27000*%
G36*
X2646800Y2224334D02*
X2648173Y2224299D01*
X2649557Y2224245D01*
X2651129Y2224163D01*
X2652928Y2224039D01*
X2654682Y2223887D01*
X2657549Y2223571D01*
X2666401Y2222478D01*
X2680484Y2218161D01*
X2687333Y2215324D01*
X2699851Y2208933D01*
X2714308Y2198019D01*
X2724341Y2187239D01*
X2728850Y2181363D01*
X2736498Y2169560D01*
X2743559Y2152877D01*
X2746853Y2138536D01*
X2747820Y2131193D01*
X2748110Y2125535D01*
X2748160Y2124212D01*
X2748192Y2122925D01*
X2748209Y2120821D01*
Y843894D01*
X2748192Y842542D01*
X2748156Y841169D01*
X2748102Y839785D01*
X2748021Y838213D01*
X2747896Y836414D01*
X2747744Y834660D01*
X2747428Y831793D01*
X2746335Y822941D01*
X2742018Y808859D01*
X2739181Y802008D01*
X2732790Y789492D01*
X2721876Y775035D01*
X2711099Y765003D01*
X2705219Y760491D01*
X2693417Y752844D01*
X2676734Y745783D01*
X2662397Y742489D01*
X2655047Y741522D01*
X2649392Y741233D01*
X2648070Y741183D01*
X2646782Y741150D01*
X2644682Y741133D01*
X859752Y741133D01*
X858400Y741150D01*
X857026Y741186D01*
X855642Y741240D01*
X854070Y741321D01*
X852271Y741446D01*
X850515Y741598D01*
X847653Y741914D01*
X838799Y743007D01*
X824719Y747323D01*
X817863Y750163D01*
X805349Y756552D01*
X790892Y767466D01*
X780862Y778243D01*
X776347Y784125D01*
X768701Y795925D01*
X761640Y812608D01*
X758347Y826946D01*
X757379Y834296D01*
X757090Y839950D01*
X757040Y841272D01*
X757008Y842560D01*
X756991Y844661D01*
X756990Y2121590D01*
X757008Y2122943D01*
X757043Y2124316D01*
X757097Y2125700D01*
X757179Y2127272D01*
X757303Y2129071D01*
X757456Y2130825D01*
X757771Y2133692D01*
X758864Y2142543D01*
X763181Y2156624D01*
X766020Y2163478D01*
X772409Y2175993D01*
X783323Y2190450D01*
X794102Y2200482D01*
X799981Y2204993D01*
X811782Y2212641D01*
X828465Y2219702D01*
X842806Y2222996D01*
X850150Y2223963D01*
X855807Y2224252D01*
X857130Y2224302D01*
X858418Y2224334D01*
X860522Y2224352D01*
X2645448D01*
X2646800Y2224334D01*
D02*
G37*
%LPC*%
G36*
X2607299Y2188200D02*
X2421900D01*
Y2048581D01*
X2386891Y2013572D01*
X2327730D01*
X2322469Y2026272D01*
X2334778Y2038581D01*
X2346982Y2059719D01*
X2353299Y2083296D01*
Y2107704D01*
X2346982Y2131281D01*
X2334778Y2152419D01*
X2317519Y2169678D01*
X2296380Y2181882D01*
X2272804Y2188200D01*
X2248395D01*
X2224819Y2181882D01*
X2203680Y2169678D01*
X2186421Y2152419D01*
X2174217Y2131281D01*
X2167900Y2107704D01*
Y2096292D01*
X2166064Y2095066D01*
X2105790Y2034792D01*
X2101599Y2033958D01*
X2091097Y2026941D01*
X2007572Y1943416D01*
X2000919Y1944633D01*
X1994872Y1948084D01*
Y2002800D01*
X2018804D01*
X2042380Y2009118D01*
X2063519Y2021322D01*
X2080778Y2038581D01*
X2092982Y2059719D01*
X2099299Y2083296D01*
Y2107704D01*
X2092982Y2131281D01*
X2080778Y2152419D01*
X2063519Y2169678D01*
X2042380Y2181882D01*
X2018804Y2188200D01*
X1994395D01*
X1970819Y2181882D01*
X1949680Y2169678D01*
X1932421Y2152419D01*
X1920217Y2131281D01*
X1913900Y2107704D01*
Y2083296D01*
X1920217Y2059719D01*
X1932421Y2038581D01*
X1935639Y2035363D01*
X1932592Y2030803D01*
X1930128Y2018415D01*
Y1934646D01*
X1917428Y1928019D01*
X1911234Y1932157D01*
X1897500Y1934889D01*
X1883766Y1932157D01*
X1877572Y1928019D01*
X1864872Y1934646D01*
Y1982614D01*
X1862408Y1995002D01*
X1855390Y2005504D01*
X1824546Y2036349D01*
X1826778Y2038581D01*
X1838982Y2059719D01*
X1845299Y2083296D01*
Y2107704D01*
X1838982Y2131281D01*
X1826778Y2152419D01*
X1809519Y2169678D01*
X1788380Y2181882D01*
X1764804Y2188200D01*
X1740395D01*
X1716819Y2181882D01*
X1695680Y2169678D01*
X1678421Y2152419D01*
X1666217Y2131281D01*
X1659900Y2107704D01*
Y2083296D01*
X1666217Y2059719D01*
X1678421Y2038581D01*
X1695680Y2021322D01*
X1716819Y2009118D01*
X1740395Y2002800D01*
X1764804D01*
X1766167Y2003165D01*
X1800128Y1969205D01*
Y1934646D01*
X1787428Y1928019D01*
X1781234Y1932157D01*
X1767500Y1934889D01*
X1753766Y1932157D01*
X1746872Y1927551D01*
X1734172Y1933599D01*
Y1943100D01*
X1731708Y1955489D01*
X1724690Y1965991D01*
X1642318Y2048363D01*
X1631816Y2055380D01*
X1619428Y2057844D01*
X1608999D01*
X1589661Y2077183D01*
X1591299Y2083296D01*
Y2107704D01*
X1584982Y2131281D01*
X1572778Y2152419D01*
X1555519Y2169678D01*
X1534380Y2181882D01*
X1510804Y2188200D01*
X1486395D01*
X1462819Y2181882D01*
X1441680Y2169678D01*
X1424421Y2152419D01*
X1412217Y2131281D01*
X1405900Y2107704D01*
Y2083296D01*
X1412217Y2059719D01*
X1424421Y2038581D01*
X1434180Y2028822D01*
X1428919Y2016122D01*
X1369759D01*
X1329217Y2056663D01*
X1330982Y2059719D01*
X1337299Y2083296D01*
Y2107704D01*
X1330982Y2131281D01*
X1318778Y2152419D01*
X1301519Y2169678D01*
X1280380Y2181882D01*
X1256804Y2188200D01*
X1232395D01*
X1208819Y2181882D01*
X1187680Y2169678D01*
X1170421Y2152419D01*
X1158217Y2131281D01*
X1151900Y2107704D01*
Y2083296D01*
X1158217Y2059719D01*
X1170421Y2038581D01*
X1187680Y2021322D01*
X1208819Y2009118D01*
X1232395Y2002800D01*
X1256804D01*
X1280380Y2009118D01*
X1283436Y2010882D01*
X1333459Y1960859D01*
X1343961Y1953842D01*
X1356350Y1951378D01*
X1549217D01*
X1557768Y1941456D01*
X1554903Y1929576D01*
X1547834Y1924853D01*
X1544256Y1923222D01*
X1535744D01*
X1532166Y1924853D01*
X1521234Y1932157D01*
X1513850Y1933626D01*
Y1841500D01*
Y1749374D01*
X1521234Y1750843D01*
X1527428Y1754981D01*
X1540128Y1748354D01*
Y1724827D01*
X1536773Y1721472D01*
X1423109D01*
X1229390Y1915190D01*
X1218888Y1922208D01*
X1207384Y1924496D01*
X1075217Y2056663D01*
X1076982Y2059719D01*
X1083299Y2083296D01*
Y2107704D01*
X1076982Y2131281D01*
X1064778Y2152419D01*
X1047519Y2169678D01*
X1026380Y2181882D01*
X1002804Y2188200D01*
X978395D01*
X954819Y2181882D01*
X933680Y2169678D01*
X916421Y2152419D01*
X904217Y2131281D01*
X897900Y2107704D01*
Y2083296D01*
X904217Y2059719D01*
X916421Y2038581D01*
X933680Y2021322D01*
X954819Y2009118D01*
X978395Y2002800D01*
X1002804D01*
X1026380Y2009118D01*
X1029436Y2010882D01*
X1170909Y1869410D01*
X1181411Y1862392D01*
X1192915Y1860104D01*
X1386810Y1666210D01*
X1397312Y1659192D01*
X1409700Y1656728D01*
X1550182D01*
X1562570Y1659192D01*
X1573072Y1666210D01*
X1595391Y1688528D01*
X1602408Y1699030D01*
X1604872Y1711418D01*
Y1748354D01*
X1617572Y1754981D01*
X1623766Y1750843D01*
X1637500Y1748111D01*
X1651234Y1750843D01*
X1662166Y1758147D01*
X1665744Y1759778D01*
X1676350D01*
X1677122Y1758622D01*
X1677796Y1758172D01*
X1678910Y1756506D01*
X1679610Y1755806D01*
X1690112Y1748788D01*
X1702500Y1746324D01*
X1714888Y1748788D01*
X1722428Y1753826D01*
X1732615Y1750163D01*
X1735128Y1748200D01*
Y1692009D01*
X1590010Y1546890D01*
X1221709Y1178590D01*
X1214691Y1168088D01*
X1212227Y1155699D01*
Y950896D01*
X1208819Y949982D01*
X1187680Y937778D01*
X1170421Y920519D01*
X1158217Y899381D01*
X1151900Y875804D01*
Y851396D01*
X1158217Y827819D01*
X1170421Y806681D01*
X1187680Y789422D01*
X1208819Y777218D01*
X1232395Y770900D01*
X1256804D01*
X1280380Y777218D01*
X1301519Y789422D01*
X1318778Y806681D01*
X1330982Y827819D01*
X1337299Y851396D01*
Y875804D01*
X1330982Y899381D01*
X1318778Y920519D01*
X1301519Y937778D01*
X1280380Y949982D01*
X1276972Y950896D01*
Y1142291D01*
X1626309Y1491628D01*
X2304966D01*
X2386300Y1410294D01*
Y1288775D01*
X2386300Y1280675D01*
X2386300Y1267974D01*
Y1100675D01*
X2566700D01*
Y1156003D01*
X2583855D01*
X2590612Y1144299D01*
X2604799Y1130112D01*
X2622175Y1120080D01*
X2641555Y1114887D01*
X2661619D01*
X2680999Y1120080D01*
X2698375Y1130112D01*
X2712563Y1144299D01*
X2722595Y1161675D01*
X2727787Y1181055D01*
Y1201119D01*
X2722595Y1220499D01*
X2712563Y1237875D01*
X2698375Y1252063D01*
X2680999Y1262095D01*
X2661619Y1267287D01*
X2641555D01*
X2622175Y1262095D01*
X2604799Y1252063D01*
X2590612Y1237875D01*
X2580723Y1220747D01*
X2566700D01*
Y1267974D01*
X2566700Y1276074D01*
X2566700Y1288775D01*
Y1456074D01*
X2432081D01*
X2341265Y1546890D01*
X2330763Y1553908D01*
X2318375Y1556372D01*
X1707647D01*
X1702786Y1568105D01*
X1790390Y1655709D01*
X1797408Y1666212D01*
X1799872Y1678600D01*
Y1748354D01*
X1812572Y1754981D01*
X1818766Y1750843D01*
X1832500Y1748111D01*
X1846234Y1750843D01*
X1853748Y1755863D01*
X1866278Y1750403D01*
X1866448Y1750237D01*
Y1733380D01*
X1868912Y1720992D01*
X1875929Y1710490D01*
X1909308Y1677111D01*
X1905000Y1661032D01*
Y1640968D01*
X1910193Y1621588D01*
X1920225Y1604212D01*
X1934412Y1590025D01*
X1951788Y1579993D01*
X1971168Y1574800D01*
X1991232D01*
X2010612Y1579993D01*
X2027988Y1590025D01*
X2042175Y1604212D01*
X2052207Y1621588D01*
X2057400Y1640968D01*
Y1661032D01*
X2052207Y1680412D01*
X2042175Y1697788D01*
X2027988Y1711975D01*
X2010612Y1722007D01*
X1991232Y1727200D01*
X1971168D01*
X1955089Y1722892D01*
X1940236Y1737745D01*
X1940712Y1740950D01*
X1942137Y1742700D01*
X1954839Y1749634D01*
X1962500Y1748111D01*
X1976234Y1750843D01*
X1987166Y1758147D01*
X1990744Y1759778D01*
X1999256D01*
X2002834Y1758147D01*
X2013766Y1750843D01*
X2027500Y1748111D01*
X2041234Y1750843D01*
X2052166Y1758147D01*
X2055744Y1759778D01*
X2064256D01*
X2067834Y1758147D01*
X2078766Y1750843D01*
X2092500Y1748111D01*
X2106234Y1750843D01*
X2117166Y1758147D01*
X2120744Y1759778D01*
X2129256D01*
X2132834Y1758147D01*
X2143766Y1750843D01*
X2151150Y1749374D01*
Y1841500D01*
X2163850D01*
Y1749374D01*
X2171234Y1750843D01*
X2182166Y1758147D01*
X2185744Y1759778D01*
X2194256D01*
X2197834Y1758147D01*
X2208766Y1750843D01*
X2216150Y1749374D01*
Y1841500D01*
Y1933626D01*
X2208766Y1932157D01*
X2197834Y1924853D01*
X2194256Y1923222D01*
X2185744D01*
X2182166Y1924853D01*
X2180325Y1926083D01*
X2179090Y1938621D01*
X2188601Y1948828D01*
X2400299D01*
X2412688Y1951292D01*
X2423190Y1958310D01*
X2467681Y2002800D01*
X2607299D01*
Y2188200D01*
D02*
G37*
G36*
X2664332Y1930400D02*
X2644268D01*
X2624888Y1925207D01*
X2607512Y1915175D01*
X2593325Y1900988D01*
X2585002Y1886572D01*
X2566700D01*
Y1916500D01*
X2386300D01*
Y1749200D01*
X2386300Y1741100D01*
X2386300Y1728400D01*
Y1655150D01*
X2566700D01*
Y1728400D01*
X2566700Y1736500D01*
X2566700Y1749200D01*
Y1821828D01*
X2585002D01*
X2593325Y1807412D01*
X2607512Y1793225D01*
X2624888Y1783193D01*
X2644268Y1778000D01*
X2664332D01*
X2683712Y1783193D01*
X2701088Y1793225D01*
X2715275Y1807412D01*
X2725307Y1824788D01*
X2730500Y1844168D01*
Y1864232D01*
X2725307Y1883612D01*
X2715275Y1900988D01*
X2701088Y1915175D01*
X2683712Y1925207D01*
X2664332Y1930400D01*
D02*
G37*
G36*
X2228850Y1933626D02*
Y1847850D01*
X2258389D01*
Y1899000D01*
X2255657Y1912734D01*
X2247878Y1924378D01*
X2236234Y1932157D01*
X2228850Y1933626D01*
D02*
G37*
G36*
X1501150D02*
X1493766Y1932157D01*
X1482122Y1924378D01*
X1474342Y1912734D01*
X1471610Y1899000D01*
Y1847850D01*
X1501150D01*
Y1933626D01*
D02*
G37*
G36*
X2258389Y1835150D02*
X2228850D01*
Y1749374D01*
X2236234Y1750843D01*
X2247878Y1758622D01*
X2255657Y1770266D01*
X2258389Y1784000D01*
Y1835150D01*
D02*
G37*
G36*
X1501150D02*
X1471610D01*
Y1784000D01*
X1474342Y1770266D01*
X1482122Y1758622D01*
X1493766Y1750843D01*
X1501150Y1749374D01*
Y1835150D01*
D02*
G37*
G36*
X1154774Y1851100D02*
X1058424D01*
Y1712250D01*
X1154774D01*
Y1851100D01*
D02*
G37*
G36*
X1045724D02*
X949374D01*
Y1712250D01*
X1045724D01*
Y1851100D01*
D02*
G37*
G36*
X2566700Y1642450D02*
X2482850D01*
Y1561100D01*
X2566700D01*
Y1642450D01*
D02*
G37*
G36*
X2470150D02*
X2386300D01*
Y1561100D01*
X2470150D01*
Y1642450D01*
D02*
G37*
G36*
X1154774Y1699550D02*
X1058424D01*
Y1560700D01*
X1154774D01*
Y1699550D01*
D02*
G37*
G36*
X1045724D02*
X949374D01*
Y1560700D01*
X1045724D01*
Y1699550D01*
D02*
G37*
G36*
X2080132Y1409700D02*
X2060068D01*
X2040688Y1404507D01*
X2023312Y1394475D01*
X2009125Y1380288D01*
X1999093Y1362912D01*
X1993900Y1343532D01*
Y1323468D01*
X1999093Y1304088D01*
X2002578Y1298051D01*
X1997592Y1290588D01*
X1995128Y1278200D01*
Y1255696D01*
X1994124Y1254912D01*
X1982428Y1251053D01*
X1951492Y1281989D01*
X1955800Y1298068D01*
Y1318132D01*
X1950607Y1337512D01*
X1940575Y1354888D01*
X1926388Y1369075D01*
X1909012Y1379107D01*
X1889632Y1384300D01*
X1869568D01*
X1850188Y1379107D01*
X1832812Y1369075D01*
X1818625Y1354888D01*
X1808593Y1337512D01*
X1803400Y1318132D01*
Y1298068D01*
X1808593Y1278688D01*
X1818625Y1261312D01*
X1832812Y1247125D01*
X1850188Y1237093D01*
X1865128Y1233090D01*
Y1194646D01*
X1852428Y1188019D01*
X1846234Y1192157D01*
X1832500Y1194889D01*
X1818766Y1192157D01*
X1807834Y1184853D01*
X1804256Y1183222D01*
X1795744D01*
X1792166Y1184853D01*
X1781234Y1192157D01*
X1767500Y1194889D01*
X1753766Y1192157D01*
X1747572Y1188019D01*
X1734872Y1194646D01*
Y1243900D01*
X1732408Y1256288D01*
X1730637Y1258938D01*
X1734707Y1265988D01*
X1739900Y1285368D01*
Y1305432D01*
X1734707Y1324812D01*
X1724675Y1342188D01*
X1710488Y1356375D01*
X1693112Y1366407D01*
X1673732Y1371600D01*
X1653668D01*
X1634288Y1366407D01*
X1616912Y1356375D01*
X1602725Y1342188D01*
X1592693Y1324812D01*
X1587500Y1305432D01*
Y1285368D01*
X1592693Y1265988D01*
X1602725Y1248612D01*
X1607695Y1243642D01*
X1607592Y1243488D01*
X1605128Y1231100D01*
Y1194646D01*
X1592428Y1188019D01*
X1586234Y1192157D01*
X1572500Y1194889D01*
X1558766Y1192157D01*
X1547834Y1184853D01*
X1544256Y1183222D01*
X1535744D01*
X1532166Y1184853D01*
X1521234Y1192157D01*
X1507500Y1194889D01*
X1493766Y1192157D01*
X1482122Y1184378D01*
X1474342Y1172734D01*
X1471610Y1159000D01*
Y1049989D01*
X1468691Y1045620D01*
X1466227Y1033232D01*
Y950896D01*
X1462819Y949982D01*
X1441680Y937778D01*
X1424421Y920519D01*
X1412217Y899381D01*
X1405900Y875804D01*
Y851396D01*
X1412217Y827819D01*
X1424421Y806681D01*
X1441680Y789422D01*
X1462819Y777218D01*
X1486395Y770900D01*
X1510804D01*
X1534380Y777218D01*
X1555519Y789422D01*
X1572778Y806681D01*
X1584982Y827819D01*
X1591299Y851396D01*
Y875804D01*
X1584982Y899381D01*
X1572778Y920519D01*
X1555519Y937778D01*
X1534380Y949982D01*
X1530972Y950896D01*
Y1010308D01*
X1561454D01*
X1572500Y1008111D01*
X1586234Y1010843D01*
X1597166Y1018147D01*
X1600744Y1019778D01*
X1609256D01*
X1612834Y1018147D01*
X1623766Y1010843D01*
X1637500Y1008111D01*
X1651234Y1010843D01*
X1662166Y1018147D01*
X1665744Y1019778D01*
X1674256D01*
X1677834Y1018147D01*
X1688766Y1010843D01*
X1702500Y1008111D01*
X1716234Y1010843D01*
X1721108Y1014099D01*
X1733808Y1007310D01*
Y954535D01*
X1716819Y949982D01*
X1695680Y937778D01*
X1678421Y920519D01*
X1666217Y899381D01*
X1659900Y875804D01*
Y851396D01*
X1666217Y827819D01*
X1678421Y806681D01*
X1695680Y789422D01*
X1716819Y777218D01*
X1740395Y770900D01*
X1764804D01*
X1788380Y777218D01*
X1809519Y789422D01*
X1826778Y806681D01*
X1838982Y827819D01*
X1845299Y851396D01*
Y875804D01*
X1838982Y899381D01*
X1826778Y920519D01*
X1824546Y922751D01*
X1854070Y952276D01*
X1861088Y962778D01*
X1863552Y975166D01*
Y1010237D01*
X1863721Y1010403D01*
X1876252Y1015863D01*
X1883766Y1010843D01*
X1897500Y1008111D01*
X1911234Y1010843D01*
X1922166Y1018147D01*
X1925744Y1019778D01*
X1934256D01*
X1937834Y1018147D01*
X1948766Y1010843D01*
X1962500Y1008111D01*
X1976234Y1010843D01*
X1987166Y1018147D01*
X1990744Y1019778D01*
X1999256D01*
X2002834Y1018147D01*
X2013766Y1010843D01*
X2027500Y1008111D01*
X2041234Y1010843D01*
X2052166Y1018147D01*
X2055744Y1019778D01*
X2064256D01*
X2067834Y1018147D01*
X2078766Y1010843D01*
X2088220Y1008962D01*
X2093139Y997401D01*
X2093222Y996004D01*
X2045436Y948218D01*
X2042380Y949982D01*
X2018804Y956300D01*
X1994395D01*
X1970819Y949982D01*
X1949680Y937778D01*
X1932421Y920519D01*
X1920217Y899381D01*
X1913900Y875804D01*
Y851396D01*
X1920217Y827819D01*
X1932421Y806681D01*
X1949680Y789422D01*
X1970819Y777218D01*
X1994395Y770900D01*
X2018804D01*
X2042380Y777218D01*
X2063519Y789422D01*
X2080778Y806681D01*
X2092982Y827819D01*
X2099299Y851396D01*
Y875804D01*
X2092982Y899381D01*
X2091217Y902437D01*
X2108909Y920128D01*
X2131000D01*
X2143389Y922592D01*
X2153891Y929610D01*
X2234848Y1010567D01*
X2236234Y1010843D01*
X2247878Y1018622D01*
X2255657Y1030266D01*
X2258389Y1044000D01*
Y1159000D01*
X2255657Y1172734D01*
X2247878Y1184378D01*
X2236234Y1192157D01*
X2222500Y1194889D01*
X2208766Y1192157D01*
X2197834Y1184853D01*
X2194256Y1183222D01*
X2185744D01*
X2182166Y1184853D01*
X2171234Y1192157D01*
X2157500Y1194889D01*
X2143766Y1192157D01*
X2137572Y1188019D01*
X2124872Y1194646D01*
Y1280509D01*
X2131075Y1286712D01*
X2141107Y1304088D01*
X2146300Y1323468D01*
Y1343532D01*
X2141107Y1362912D01*
X2131075Y1380288D01*
X2116888Y1394475D01*
X2099512Y1404507D01*
X2080132Y1409700D01*
D02*
G37*
G36*
X2607299Y956300D02*
X2520949D01*
Y869950D01*
X2607299D01*
Y956300D01*
D02*
G37*
G36*
X2508249D02*
X2421900D01*
Y869950D01*
X2508249D01*
Y956300D01*
D02*
G37*
G36*
X2607299Y857250D02*
X2520949D01*
Y770900D01*
X2607299D01*
Y857250D01*
D02*
G37*
G36*
X2508249D02*
X2421900D01*
Y770900D01*
X2508249D01*
Y857250D01*
D02*
G37*
G36*
X2272804Y956300D02*
X2248395D01*
X2224819Y949982D01*
X2203680Y937778D01*
X2186421Y920519D01*
X2174217Y899381D01*
X2167900Y875804D01*
Y851396D01*
X2174217Y827819D01*
X2186421Y806681D01*
X2203680Y789422D01*
X2224819Y777218D01*
X2248395Y770900D01*
X2272804D01*
X2296380Y777218D01*
X2317519Y789422D01*
X2334778Y806681D01*
X2346982Y827819D01*
X2353299Y851396D01*
Y875804D01*
X2346982Y899381D01*
X2334778Y920519D01*
X2317519Y937778D01*
X2296380Y949982D01*
X2272804Y956300D01*
D02*
G37*
G36*
X1154774Y1411100D02*
X949374D01*
Y1120700D01*
X958227D01*
Y950896D01*
X954819Y949982D01*
X933680Y937778D01*
X916421Y920519D01*
X904217Y899381D01*
X897900Y875804D01*
Y851396D01*
X904217Y827819D01*
X916421Y806681D01*
X933680Y789422D01*
X954819Y777218D01*
X978395Y770900D01*
X1002804D01*
X1026380Y777218D01*
X1047519Y789422D01*
X1064778Y806681D01*
X1076982Y827819D01*
X1083299Y851396D01*
Y875804D01*
X1076982Y899381D01*
X1064778Y920519D01*
X1047519Y937778D01*
X1026380Y949982D01*
X1022972Y950896D01*
Y1120700D01*
X1154774D01*
Y1411100D01*
D02*
G37*
%LPD*%
D10*
X2157500Y1841500D02*
D03*
X2092500D02*
D03*
X2027500D02*
D03*
X1962500D02*
D03*
X1897500D02*
D03*
X1832500D02*
D03*
X1767500D02*
D03*
X1702500D02*
D03*
X1637500D02*
D03*
X1572500D02*
D03*
X1507500D02*
D03*
X2222500Y1101500D02*
D03*
X2157500D02*
D03*
X2092500D02*
D03*
X2027500D02*
D03*
X1962500D02*
D03*
X1897500D02*
D03*
X1832500D02*
D03*
X1767500D02*
D03*
X1702500D02*
D03*
X1637500D02*
D03*
X1572500D02*
D03*
X1507500D02*
D03*
X2222500Y1841500D02*
D03*
D11*
X1052074Y1705900D02*
D03*
Y1265900D02*
D03*
D12*
X2476500Y1648800D02*
D03*
Y1828800D02*
D03*
Y1188375D02*
D03*
Y1368374D02*
D03*
D13*
X2501900Y1854200D02*
X2654300D01*
X2476500Y1828800D02*
X2501900Y1854200D01*
X1897500Y1841500D02*
X1898820Y1840180D01*
Y1733380D02*
Y1840180D01*
Y1733380D02*
X1981200Y1651000D01*
X1612900Y1524000D02*
X1767500Y1678600D01*
X1244599Y1155699D02*
X1612900Y1524000D01*
X2318375D02*
X2474000Y1368374D01*
X1612900Y1524000D02*
X2318375D01*
X2092500Y1101500D02*
Y1323800D01*
X2070100Y1346200D02*
X2092500Y1323800D01*
X2070100Y1320800D02*
Y1346200D01*
X2027500Y1101500D02*
Y1278200D01*
X2070100Y1320800D01*
X1702500Y1101500D02*
Y1243900D01*
X1676400Y1270000D02*
X1702500Y1243900D01*
X1637500Y1231100D02*
X1676400Y1270000D01*
X1637500Y1101500D02*
Y1231100D01*
X1498599Y1033232D02*
X1508047Y1042680D01*
X1569313D02*
X1572500Y1045867D01*
X1508047Y1042680D02*
X1569313D01*
X1572500Y1045867D02*
Y1101500D01*
X1897500Y1290200D02*
X1962500Y1225200D01*
X1879600Y1308100D02*
X1897500Y1290200D01*
X1962500Y1101500D02*
Y1225200D01*
X1897500Y1101500D02*
Y1290200D01*
X2648875Y1188375D02*
X2654300Y1193800D01*
X2476500Y1188375D02*
X2648875D01*
X2474000Y1368374D02*
X2476500D01*
X1767500Y1678600D02*
Y1841500D01*
X1244599Y863600D02*
Y1155699D01*
X2095500Y952500D02*
X2156180Y1013180D01*
X2006599Y863600D02*
X2095500Y952500D01*
X2222500Y1044000D02*
Y1101500D01*
X2131000Y952500D02*
X2222500Y1044000D01*
X2095500Y952500D02*
X2131000D01*
X2156180Y1013180D02*
Y1100180D01*
X2157500Y1101500D01*
X1766180Y910166D02*
Y1100180D01*
Y910166D02*
X1831180Y975166D01*
X1752599Y896586D02*
X1766180Y910166D01*
X1752599Y863600D02*
Y896586D01*
X1831180Y975166D02*
Y1100180D01*
X1832500Y1101500D01*
X1766180Y1100180D02*
X1767500Y1101500D01*
X1498599Y863600D02*
Y1033232D01*
X990599Y1204426D02*
X1052074Y1265900D01*
X990599Y863600D02*
Y1204426D01*
X1752599Y2062514D02*
X1832500Y1982614D01*
X1752599Y2062514D02*
Y2095500D01*
X1832500Y1841500D02*
Y1982614D01*
X2171700Y1981200D02*
X2400299D01*
X2514599Y2095500D01*
X2143750Y1953250D02*
X2171700Y1981200D01*
X2135029Y1953250D02*
X2143750D01*
X2103250Y1921471D02*
X2135029Y1953250D01*
X2103250Y1911617D02*
Y1921471D01*
X2092500Y1900867D02*
X2103250Y1911617D01*
X2092500Y1841500D02*
Y1900867D01*
X2027500Y1841500D02*
X2028820Y1842820D01*
X2113987Y2004050D02*
X2120829D01*
X2028820Y1842820D02*
Y1918883D01*
X2120829Y2004050D02*
X2188954Y2072175D01*
X2028820Y1918883D02*
X2113987Y2004050D01*
X2188954Y2072175D02*
X2237275D01*
X2260599Y2095500D01*
X1962500Y2018415D02*
X2006599Y2062514D01*
X1962500Y1841500D02*
Y2018415D01*
X2006599Y2062514D02*
Y2095500D01*
X1356350Y1983750D02*
X1564471D01*
X1244599Y2095500D02*
X1356350Y1983750D01*
X990599Y2095500D02*
X1193799Y1892300D01*
X1206500D01*
X1550182Y1689100D02*
X1572500Y1711418D01*
X1409700Y1689100D02*
X1550182D01*
X1206500Y1892300D02*
X1409700Y1689100D01*
X1572500Y1711418D02*
Y1841500D01*
X1626750Y1911617D02*
Y1921471D01*
X1564471Y1983750D02*
X1626750Y1921471D01*
Y1911617D02*
X1637500Y1900867D01*
Y1841500D02*
Y1900867D01*
X1595590Y2025472D02*
X1619428D01*
X1498599Y2095500D02*
X1525563D01*
X1595590Y2025472D01*
X1619428D02*
X1701800Y1943100D01*
Y1779396D02*
Y1943100D01*
X1702500Y1778696D02*
Y1841500D01*
X1701800Y1779396D02*
X1702500Y1778696D01*
D14*
X1752599Y863600D02*
D03*
X1498599Y2095500D02*
D03*
X2006599D02*
D03*
X2260599D02*
D03*
X1752599D02*
D03*
X1244599D02*
D03*
X990599D02*
D03*
X1498599Y863600D02*
D03*
X2006599D02*
D03*
X2260599D02*
D03*
X1244599D02*
D03*
X990599D02*
D03*
D15*
X2514599Y2095500D02*
D03*
Y863600D02*
D03*
D16*
X1663700Y1295400D02*
D03*
X2654300Y1854200D02*
D03*
X1981200Y1651000D02*
D03*
X2070100Y1333500D02*
D03*
X1879600Y1308100D02*
D03*
X2651587Y1191087D02*
D03*
%TF.MD5,7be299bbe80bee431aeb774b0eea0fbd*%
M02*
