G04*
G04 #@! TF.GenerationSoftware,Altium Limited,Altium Designer,23.2.1 (34)*
G04*
G04 Layer_Color=32896*
%FSLAX44Y44*%
%MOMM*%
G71*
G04*
G04 #@! TF.SameCoordinates,7A8B7A28-FB81-42DE-AEC7-513869FFDE84*
G04*
G04*
G04 #@! TF.FilePolarity,Positive*
G04*
G01*
G75*
%ADD38C,0.2540*%
D38*
X95253Y123700D02*
X93476Y125478D01*
Y129033D01*
X95253Y130810D01*
X102363D01*
X104140Y129033D01*
Y125478D01*
X102363Y123700D01*
X98808D01*
Y127255D01*
X104140Y120146D02*
X93476D01*
X104140Y113036D01*
X93476D01*
Y109481D02*
X104140D01*
Y104149D01*
X102363Y102371D01*
X95253D01*
X93476Y104149D01*
Y109481D01*
X118876Y130810D02*
X125985D01*
X129540Y127255D01*
X125985Y123700D01*
X118876D01*
X120653Y113036D02*
X118876Y114813D01*
Y118368D01*
X120653Y120146D01*
X127763D01*
X129540Y118368D01*
Y114813D01*
X127763Y113036D01*
X120653Y102371D02*
X118876Y104149D01*
Y107704D01*
X120653Y109481D01*
X127763D01*
X129540Y107704D01*
Y104149D01*
X127763Y102371D01*
X154940Y127000D02*
X147830D01*
X144276Y123445D01*
X147830Y119890D01*
X154940D01*
X149608D01*
Y127000D01*
X144276Y111003D02*
Y114558D01*
X146053Y116335D01*
X153163D01*
X154940Y114558D01*
Y111003D01*
X153163Y109226D01*
X146053D01*
X144276Y111003D01*
X154940Y105671D02*
Y102116D01*
Y103893D01*
X144276D01*
X146053Y105671D01*
X179070Y130810D02*
X171960D01*
X168405Y127255D01*
X171960Y123700D01*
X179070D01*
X173738D01*
Y130810D01*
X168405Y114813D02*
Y118368D01*
X170183Y120146D01*
X177293D01*
X179070Y118368D01*
Y114813D01*
X177293Y113036D01*
X170183D01*
X168405Y114813D01*
X179070Y102371D02*
Y109481D01*
X171960Y102371D01*
X170183D01*
X168405Y104149D01*
Y107704D01*
X170183Y109481D01*
X195075Y127000D02*
X205740D01*
Y121668D01*
X203963Y119890D01*
X202185D01*
X200408Y121668D01*
Y127000D01*
Y121668D01*
X198630Y119890D01*
X196853D01*
X195075Y121668D01*
Y127000D01*
Y111003D02*
Y114558D01*
X196853Y116335D01*
X203963D01*
X205740Y114558D01*
Y111003D01*
X203963Y109226D01*
X196853D01*
X195075Y111003D01*
X205740Y105671D02*
Y102116D01*
Y103893D01*
X195075D01*
X196853Y105671D01*
X220476Y129540D02*
X231140D01*
Y124208D01*
X229363Y122430D01*
X227585D01*
X225808Y124208D01*
Y129540D01*
Y124208D01*
X224030Y122430D01*
X222253D01*
X220476Y124208D01*
Y129540D01*
Y113543D02*
Y117098D01*
X222253Y118876D01*
X229363D01*
X231140Y117098D01*
Y113543D01*
X229363Y111766D01*
X222253D01*
X220476Y113543D01*
X231140Y101101D02*
Y108211D01*
X224030Y101101D01*
X222253D01*
X220476Y102879D01*
Y106433D01*
X222253Y108211D01*
X245875Y139700D02*
X252985D01*
X256540Y136145D01*
X252985Y132590D01*
X245875D01*
X256540Y129036D02*
X245875D01*
X249430Y125481D01*
X245875Y121926D01*
X256540D01*
X245875Y113039D02*
Y116594D01*
X247653Y118371D01*
X254763D01*
X256540Y116594D01*
Y113039D01*
X254763Y111261D01*
X247653D01*
X245875Y113039D01*
Y107706D02*
Y100597D01*
Y104151D01*
X256540D01*
X257810Y191770D02*
X247146D01*
Y186438D01*
X248923Y184660D01*
X252478D01*
X254255Y186438D01*
Y191770D01*
X247146Y181105D02*
X257810D01*
X254255Y177551D01*
X257810Y173996D01*
X247146D01*
X257810Y170441D02*
X247146D01*
X250700Y166886D01*
X247146Y163331D01*
X257810D01*
X247146Y159776D02*
X257810D01*
Y154444D01*
X256033Y152667D01*
X254255D01*
X252478Y154444D01*
Y159776D01*
Y154444D01*
X250700Y152667D01*
X248923D01*
X247146Y154444D01*
Y159776D01*
X221745Y191770D02*
X232410D01*
Y186438D01*
X230633Y184660D01*
X228855D01*
X227078Y186438D01*
Y191770D01*
Y186438D01*
X225300Y184660D01*
X223523D01*
X221745Y186438D01*
Y191770D01*
Y181105D02*
Y177551D01*
Y179328D01*
X232410D01*
Y181105D01*
Y177551D01*
Y172218D02*
X221745D01*
X232410Y165109D01*
X221745D01*
X232410Y154444D02*
Y161554D01*
X225300Y154444D01*
X223523D01*
X221745Y156222D01*
Y159776D01*
X223523Y161554D01*
X195075Y191770D02*
X205740D01*
Y186438D01*
X203963Y184660D01*
X202185D01*
X200408Y186438D01*
Y191770D01*
Y186438D01*
X198630Y184660D01*
X196853D01*
X195075Y186438D01*
Y191770D01*
Y181105D02*
Y177551D01*
Y179328D01*
X205740D01*
Y181105D01*
Y177551D01*
Y172218D02*
X195075D01*
X205740Y165109D01*
X195075D01*
X205740Y161554D02*
Y157999D01*
Y159776D01*
X195075D01*
X196853Y161554D01*
X171453Y184660D02*
X169676Y186438D01*
Y189993D01*
X171453Y191770D01*
X173230D01*
X175008Y189993D01*
Y186438D01*
X176785Y184660D01*
X178563D01*
X180340Y186438D01*
Y189993D01*
X178563Y191770D01*
X169676Y181105D02*
Y173996D01*
Y177551D01*
X180340D01*
X169676Y170441D02*
X180340D01*
Y165109D01*
X178563Y163331D01*
X176785D01*
X175008Y165109D01*
Y170441D01*
Y165109D01*
X173230Y163331D01*
X171453D01*
X169676Y165109D01*
Y170441D01*
Y159776D02*
X171453D01*
X175008Y156222D01*
X171453Y152667D01*
X169676D01*
X175008Y156222D02*
X180340D01*
X154940Y191770D02*
X147830D01*
X144276Y188215D01*
X147830Y184660D01*
X154940D01*
X149608D01*
Y191770D01*
X144276Y181105D02*
Y177551D01*
Y179328D01*
X154940D01*
Y181105D01*
Y177551D01*
Y172218D02*
X144276D01*
X154940Y165109D01*
X144276D01*
X154940Y161554D02*
Y157999D01*
Y159776D01*
X144276D01*
X146053Y161554D01*
X129540Y191770D02*
X122430D01*
X118876Y188215D01*
X122430Y184660D01*
X129540D01*
X124208D01*
Y191770D01*
X118876Y181105D02*
Y177551D01*
Y179328D01*
X129540D01*
Y181105D01*
Y177551D01*
Y172218D02*
X118876D01*
X129540Y165109D01*
X118876D01*
X129540Y154444D02*
Y161554D01*
X122430Y154444D01*
X120653D01*
X118876Y156222D01*
Y159776D01*
X120653Y161554D01*
X105410Y191770D02*
X94746D01*
Y186438D01*
X96523Y184660D01*
X100078D01*
X101855Y186438D01*
Y191770D01*
X94746Y181105D02*
X105410D01*
X101855Y177551D01*
X105410Y173996D01*
X94746D01*
X105410Y170441D02*
X94746D01*
X98300Y166886D01*
X94746Y163331D01*
X105410D01*
Y159776D02*
X98300D01*
X94746Y156222D01*
X98300Y152667D01*
X105410D01*
X100078D01*
Y159776D01*
M02*
