%TF.GenerationSoftware,Altium Limited,Altium Designer,24.1.2 (44)*%
G04 Layer_Color=65535*
%FSLAX45Y45*%
%MOMM*%
%TF.SameCoordinates,D40106D2-5846-4758-920C-99A56FEE523B*%
%TF.FilePolarity,Positive*%
%TF.FileFunction,Legend,Top*%
%TF.Part,Single*%
G01*
G75*
%TA.AperFunction,NonConductor*%
%ADD17C,0.60000*%
%ADD18C,0.25000*%
%ADD19C,0.20000*%
%ADD20C,0.20320*%
D17*
X1595000Y1321500D02*
G03*
X1595000Y1321500I-30000J0D01*
G01*
D18*
X1442500Y1101500D02*
G03*
X1442500Y1101500I-12500J0D01*
G01*
D19*
X2265000Y1221500D02*
Y1721500D01*
X1465000Y1221500D02*
Y1721500D01*
X2265000D01*
X1465000Y1221500D02*
X2265000D01*
X1172074Y1710900D02*
X1209574D01*
X1277074Y1643400D01*
X827074D02*
X894574Y1710900D01*
X932074D01*
X1277074Y1260900D02*
Y1643400D01*
X1172074Y1260900D02*
X1277074D01*
X827074D02*
X932074D01*
X827074D02*
Y1643400D01*
D20*
X2604671Y1411208D02*
Y1478919D01*
Y1445063D01*
X2706238D01*
X2604671Y1512775D02*
X2706238D01*
Y1563558D01*
X2689311Y1580486D01*
X2672383D01*
X2655455Y1563558D01*
Y1512775D01*
Y1563558D01*
X2638527Y1580486D01*
X2621599D01*
X2604671Y1563558D01*
Y1512775D01*
Y1682054D02*
X2621599Y1648198D01*
X2655455Y1614342D01*
X2689311D01*
X2706238Y1631270D01*
Y1665126D01*
X2689311Y1682054D01*
X2672383D01*
X2655455Y1665126D01*
Y1614342D01*
X2604671Y1783621D02*
X2621599Y1749765D01*
X2655455Y1715909D01*
X2689311D01*
X2706238Y1732837D01*
Y1766693D01*
X2689311Y1783621D01*
X2672383D01*
X2655455Y1766693D01*
Y1715909D01*
X2706238Y1817477D02*
Y1851332D01*
Y1834405D01*
X2604671D01*
X2621599Y1817477D01*
X2706238Y1969827D02*
Y1902116D01*
X2638527Y1969827D01*
X2621599D01*
X2604671Y1952900D01*
Y1919044D01*
X2621599Y1902116D01*
%TF.MD5,844e1038759acf74dfff881843515b56*%
M02*
