G04*
G04 #@! TF.GenerationSoftware,Altium Limited,Altium Designer,23.2.1 (34)*
G04*
G04 Layer_Color=2752767*
%FSLAX44Y44*%
%MOMM*%
G71*
G04*
G04 #@! TF.SameCoordinates,7A8B7A28-FB81-42DE-AEC7-513869FFDE84*
G04*
G04*
G04 #@! TF.FilePolarity,Positive*
G04*
G01*
G75*
%ADD39C,0.1270*%
%ADD40C,0.1693*%
D39*
X170180Y81280D02*
Y91440D01*
X180340D01*
Y81280D01*
X170180D01*
X144780Y204470D02*
Y214630D01*
X154940D01*
Y204470D01*
X144780D01*
X195580D02*
Y214630D01*
X205740D01*
Y204470D01*
X195580D01*
X246380D02*
Y214630D01*
X256540D01*
Y204470D01*
X246380D01*
X220980D02*
Y214630D01*
X231140D01*
Y204470D01*
X220980D01*
X170180D02*
Y214630D01*
X180340D01*
Y204470D01*
X170180D01*
X119380D02*
Y214630D01*
X129540D01*
Y204470D01*
X119380D01*
X93980D02*
Y214630D01*
X104140D01*
Y204470D01*
X93980D01*
X144780Y81280D02*
Y91440D01*
X154940D01*
Y81280D01*
X144780D01*
X195580D02*
Y91440D01*
X205740D01*
Y81280D01*
X195580D01*
X246380D02*
Y91440D01*
X256540D01*
Y81280D01*
X246380D01*
X220980D02*
Y91440D01*
X231140D01*
Y81280D01*
X220980D01*
X119380D02*
Y91440D01*
X129540D01*
Y81280D01*
X119380D01*
X93980D02*
Y91440D01*
X104140D01*
Y81280D01*
X93980D01*
D40*
X157205Y155712D02*
G03*
X157205Y155712I-5080J0D01*
G01*
Y149362D02*
G03*
X157205Y149362I-5080J0D01*
G01*
Y123962D02*
G03*
X157205Y123962I-5080J0D01*
G01*
Y130312D02*
G03*
X157205Y130312I-5080J0D01*
G01*
Y136662D02*
G03*
X157205Y136662I-5080J0D01*
G01*
Y143012D02*
G03*
X157205Y143012I-5080J0D01*
G01*
X195580Y137160D02*
G03*
X195580Y137160I-5080J0D01*
G01*
X182880Y143510D02*
G03*
X182880Y143510I-5080J0D01*
G01*
X189230D02*
G03*
X189230Y143510I-5080J0D01*
G01*
X195580D02*
G03*
X195580Y143510I-5080J0D01*
G01*
X201930Y124460D02*
G03*
X201930Y124460I-5080J0D01*
G01*
X208280D02*
G03*
X208280Y124460I-5080J0D01*
G01*
X214630D02*
G03*
X214630Y124460I-5080J0D01*
G01*
X201930Y130810D02*
G03*
X201930Y130810I-5080J0D01*
G01*
X208280D02*
G03*
X208280Y130810I-5080J0D01*
G01*
X214630D02*
G03*
X214630Y130810I-5080J0D01*
G01*
X201930Y137160D02*
G03*
X201930Y137160I-5080J0D01*
G01*
X208280D02*
G03*
X208280Y137160I-5080J0D01*
G01*
X214630D02*
G03*
X214630Y137160I-5080J0D01*
G01*
X201930Y143510D02*
G03*
X201930Y143510I-5080J0D01*
G01*
X208280D02*
G03*
X208280Y143510I-5080J0D01*
G01*
X214630D02*
G03*
X214630Y143510I-5080J0D01*
G01*
Y168910D02*
G03*
X214630Y168910I-5080J0D01*
G01*
X201930Y162560D02*
G03*
X201930Y162560I-5080J0D01*
G01*
X208280D02*
G03*
X208280Y162560I-5080J0D01*
G01*
X214630D02*
G03*
X214630Y162560I-5080J0D01*
G01*
X201930Y156210D02*
G03*
X201930Y156210I-5080J0D01*
G01*
X208280D02*
G03*
X208280Y156210I-5080J0D01*
G01*
X214630D02*
G03*
X214630Y156210I-5080J0D01*
G01*
X201930Y149860D02*
G03*
X201930Y149860I-5080J0D01*
G01*
X208280D02*
G03*
X208280Y149860I-5080J0D01*
G01*
X214630D02*
G03*
X214630Y149860I-5080J0D01*
G01*
X150855Y149362D02*
G03*
X150855Y149362I-5080J0D01*
G01*
Y123962D02*
G03*
X150855Y123962I-5080J0D01*
G01*
Y130312D02*
G03*
X150855Y130312I-5080J0D01*
G01*
Y136662D02*
G03*
X150855Y136662I-5080J0D01*
G01*
Y143012D02*
G03*
X150855Y143012I-5080J0D01*
G01*
X144505Y149362D02*
G03*
X144505Y149362I-5080J0D01*
G01*
X232410Y110490D02*
G03*
X232410Y110490I-5080J0D01*
G01*
X130199Y138579D02*
G03*
X130199Y138579I-5080J0D01*
G01*
X189230Y97790D02*
G03*
X189230Y97790I-5080J0D01*
G01*
X243785Y184150D02*
G03*
X243785Y184150I-5080J0D01*
G01*
X274320Y115570D02*
G03*
X274320Y115570I-5080J0D01*
G01*
X149860Y168910D02*
G03*
X149860Y168910I-5080J0D01*
G01*
X170180Y137160D02*
G03*
X170180Y137160I-5080J0D01*
G01*
X176530D02*
G03*
X176530Y137160I-5080J0D01*
G01*
X163830Y143510D02*
G03*
X163830Y143510I-5080J0D01*
G01*
X170180D02*
G03*
X170180Y143510I-5080J0D01*
G01*
X163830Y124460D02*
G03*
X163830Y124460I-5080J0D01*
G01*
X170180D02*
G03*
X170180Y124460I-5080J0D01*
G01*
X176530D02*
G03*
X176530Y124460I-5080J0D01*
G01*
X163830Y130810D02*
G03*
X163830Y130810I-5080J0D01*
G01*
X170180D02*
G03*
X170180Y130810I-5080J0D01*
G01*
X176530D02*
G03*
X176530Y130810I-5080J0D01*
G01*
X163830Y137160D02*
G03*
X163830Y137160I-5080J0D01*
G01*
X176530Y143510D02*
G03*
X176530Y143510I-5080J0D01*
G01*
Y149860D02*
G03*
X176530Y149860I-5080J0D01*
G01*
X170180D02*
G03*
X170180Y149860I-5080J0D01*
G01*
X163830D02*
G03*
X163830Y149860I-5080J0D01*
G01*
X203200Y172720D02*
G03*
X203200Y172720I-5080J0D01*
G01*
X168910Y201930D02*
G03*
X168910Y201930I-5080J0D01*
G01*
X182880Y168910D02*
G03*
X182880Y168910I-5080J0D01*
G01*
X189230D02*
G03*
X189230Y168910I-5080J0D01*
G01*
X195580D02*
G03*
X195580Y168910I-5080J0D01*
G01*
X182880Y162560D02*
G03*
X182880Y162560I-5080J0D01*
G01*
X189230D02*
G03*
X189230Y162560I-5080J0D01*
G01*
X195580D02*
G03*
X195580Y162560I-5080J0D01*
G01*
X182880Y156210D02*
G03*
X182880Y156210I-5080J0D01*
G01*
X189230D02*
G03*
X189230Y156210I-5080J0D01*
G01*
X195580D02*
G03*
X195580Y156210I-5080J0D01*
G01*
X182880Y149860D02*
G03*
X182880Y149860I-5080J0D01*
G01*
X189230D02*
G03*
X189230Y149860I-5080J0D01*
G01*
X195580D02*
G03*
X195580Y149860I-5080J0D01*
G01*
X182880Y124460D02*
G03*
X182880Y124460I-5080J0D01*
G01*
X189230D02*
G03*
X189230Y124460I-5080J0D01*
G01*
X195580D02*
G03*
X195580Y124460I-5080J0D01*
G01*
X182880Y130810D02*
G03*
X182880Y130810I-5080J0D01*
G01*
X189230D02*
G03*
X189230Y130810I-5080J0D01*
G01*
X195580D02*
G03*
X195580Y130810I-5080J0D01*
G01*
X182880Y137160D02*
G03*
X182880Y137160I-5080J0D01*
G01*
X189230D02*
G03*
X189230Y137160I-5080J0D01*
G01*
X176530Y156210D02*
G03*
X176530Y156210I-5080J0D01*
G01*
X170180D02*
G03*
X170180Y156210I-5080J0D01*
G01*
X163830D02*
G03*
X163830Y156210I-5080J0D01*
G01*
X176530Y162560D02*
G03*
X176530Y162560I-5080J0D01*
G01*
X170180D02*
G03*
X170180Y162560I-5080J0D01*
G01*
X163830D02*
G03*
X163830Y162560I-5080J0D01*
G01*
X176530Y168910D02*
G03*
X176530Y168910I-5080J0D01*
G01*
X170180D02*
G03*
X170180Y168910I-5080J0D01*
G01*
X163830D02*
G03*
X163830Y168910I-5080J0D01*
G01*
X144505Y123962D02*
G03*
X144505Y123962I-5080J0D01*
G01*
Y130312D02*
G03*
X144505Y130312I-5080J0D01*
G01*
Y136662D02*
G03*
X144505Y136662I-5080J0D01*
G01*
Y143012D02*
G03*
X144505Y143012I-5080J0D01*
G01*
M02*
