M48
;Layer_Color=9474304
;FILE_FORMAT=4:4
METRIC,LZ
;TYPE=PLATED
T01F00S00C0.7112
T02F00S00C1.1000
%
T01
X0016637Y0012954
X0018796Y0013081
X0020701Y0013335
X0019812Y001651
X0026543Y0018542
X00265159Y00119109
T02
X0009906Y0008636
X0012446
X0014986
X0017526
X0020066
X0022606
X0025146
Y0020955
X0022606
X0020066
X0017526
X0014986
X0012446
X0009906
M30
