%TF.GenerationSoftware,Altium Limited,Altium Designer,24.1.2 (44)*%
G04 Layer_Color=32896*
%FSLAX45Y45*%
%MOMM*%
%TF.SameCoordinates,D40106D2-5846-4758-920C-99A56FEE523B*%
%TF.FilePolarity,Positive*%
%TF.FileFunction,Legend,Bot*%
%TF.Part,Single*%
G01*
G75*
%TA.AperFunction,NonConductor*%
%ADD21C,0.25400*%
D21*
X952529Y1237003D02*
X934755Y1254777D01*
Y1290326D01*
X952529Y1308100D01*
X1023626D01*
X1041400Y1290326D01*
Y1254777D01*
X1023626Y1237003D01*
X988077D01*
Y1272551D01*
X1041400Y1201455D02*
X934755D01*
X1041400Y1130357D01*
X934755D01*
Y1094809D02*
X1041400D01*
Y1041486D01*
X1023626Y1023712D01*
X952529D01*
X934755Y1041486D01*
Y1094809D01*
X1188755Y1308100D02*
X1259851D01*
X1295400Y1272551D01*
X1259851Y1237003D01*
X1188755D01*
X1206529Y1130357D02*
X1188755Y1148132D01*
Y1183680D01*
X1206529Y1201455D01*
X1277626D01*
X1295400Y1183680D01*
Y1148132D01*
X1277626Y1130357D01*
X1206529Y1023712D02*
X1188755Y1041486D01*
Y1077035D01*
X1206529Y1094809D01*
X1277626D01*
X1295400Y1077035D01*
Y1041486D01*
X1277626Y1023712D01*
X1549400Y1270000D02*
X1478303D01*
X1442755Y1234451D01*
X1478303Y1198903D01*
X1549400D01*
X1496077D01*
Y1270000D01*
X1442755Y1110032D02*
Y1145580D01*
X1460529Y1163355D01*
X1531626D01*
X1549400Y1145580D01*
Y1110032D01*
X1531626Y1092257D01*
X1460529D01*
X1442755Y1110032D01*
X1549400Y1056709D02*
Y1021161D01*
Y1038935D01*
X1442755D01*
X1460529Y1056709D01*
X1790700Y1308100D02*
X1719603D01*
X1684055Y1272551D01*
X1719603Y1237003D01*
X1790700D01*
X1737377D01*
Y1308100D01*
X1684055Y1148132D02*
Y1183680D01*
X1701829Y1201455D01*
X1772926D01*
X1790700Y1183680D01*
Y1148132D01*
X1772926Y1130357D01*
X1701829D01*
X1684055Y1148132D01*
X1790700Y1023712D02*
Y1094809D01*
X1719603Y1023712D01*
X1701829D01*
X1684055Y1041486D01*
Y1077035D01*
X1701829Y1094809D01*
X1950755Y1270000D02*
X2057400D01*
Y1216677D01*
X2039626Y1198903D01*
X2021851D01*
X2004077Y1216677D01*
Y1270000D01*
Y1216677D01*
X1986303Y1198903D01*
X1968529D01*
X1950755Y1216677D01*
Y1270000D01*
Y1110032D02*
Y1145580D01*
X1968529Y1163355D01*
X2039626D01*
X2057400Y1145580D01*
Y1110032D01*
X2039626Y1092257D01*
X1968529D01*
X1950755Y1110032D01*
X2057400Y1056709D02*
Y1021161D01*
Y1038935D01*
X1950755D01*
X1968529Y1056709D01*
X2204755Y1295400D02*
X2311400D01*
Y1242077D01*
X2293626Y1224303D01*
X2275851D01*
X2258077Y1242077D01*
Y1295400D01*
Y1242077D01*
X2240303Y1224303D01*
X2222529D01*
X2204755Y1242077D01*
Y1295400D01*
Y1135432D02*
Y1170980D01*
X2222529Y1188755D01*
X2293626D01*
X2311400Y1170980D01*
Y1135432D01*
X2293626Y1117657D01*
X2222529D01*
X2204755Y1135432D01*
X2311400Y1011012D02*
Y1082109D01*
X2240303Y1011012D01*
X2222529D01*
X2204755Y1028786D01*
Y1064335D01*
X2222529Y1082109D01*
X2458755Y1397000D02*
X2529851D01*
X2565400Y1361451D01*
X2529851Y1325903D01*
X2458755D01*
X2565400Y1290355D02*
X2458755D01*
X2494303Y1254806D01*
X2458755Y1219257D01*
X2565400D01*
X2458755Y1130386D02*
Y1165935D01*
X2476529Y1183709D01*
X2547626D01*
X2565400Y1165935D01*
Y1130386D01*
X2547626Y1112612D01*
X2476529D01*
X2458755Y1130386D01*
Y1077064D02*
Y1005966D01*
Y1041515D01*
X2565400D01*
X2578100Y1917700D02*
X2471455D01*
Y1864377D01*
X2489229Y1846603D01*
X2524777D01*
X2542551Y1864377D01*
Y1917700D01*
X2471455Y1811055D02*
X2578100D01*
X2542551Y1775506D01*
X2578100Y1739957D01*
X2471455D01*
X2578100Y1704409D02*
X2471455D01*
X2507003Y1668861D01*
X2471455Y1633312D01*
X2578100D01*
X2471455Y1597764D02*
X2578100D01*
Y1544441D01*
X2560326Y1526666D01*
X2542551D01*
X2524777Y1544441D01*
Y1597764D01*
Y1544441D01*
X2507003Y1526666D01*
X2489229D01*
X2471455Y1544441D01*
Y1597764D01*
X2217455Y1917700D02*
X2324100D01*
Y1864377D01*
X2306326Y1846603D01*
X2288551D01*
X2270777Y1864377D01*
Y1917700D01*
Y1864377D01*
X2253003Y1846603D01*
X2235229D01*
X2217455Y1864377D01*
Y1917700D01*
Y1811055D02*
Y1775506D01*
Y1793280D01*
X2324100D01*
Y1811055D01*
Y1775506D01*
Y1722183D02*
X2217455D01*
X2324100Y1651086D01*
X2217455D01*
X2324100Y1544441D02*
Y1615538D01*
X2253003Y1544441D01*
X2235229D01*
X2217455Y1562215D01*
Y1597764D01*
X2235229Y1615538D01*
X1950755Y1917700D02*
X2057400D01*
Y1864377D01*
X2039626Y1846603D01*
X2021851D01*
X2004077Y1864377D01*
Y1917700D01*
Y1864377D01*
X1986303Y1846603D01*
X1968529D01*
X1950755Y1864377D01*
Y1917700D01*
Y1811055D02*
Y1775506D01*
Y1793280D01*
X2057400D01*
Y1811055D01*
Y1775506D01*
Y1722183D02*
X1950755D01*
X2057400Y1651086D01*
X1950755D01*
X2057400Y1615538D02*
Y1579989D01*
Y1597764D01*
X1950755D01*
X1968529Y1615538D01*
X1714529Y1846603D02*
X1696755Y1864377D01*
Y1899926D01*
X1714529Y1917700D01*
X1732303D01*
X1750077Y1899926D01*
Y1864377D01*
X1767851Y1846603D01*
X1785626D01*
X1803400Y1864377D01*
Y1899926D01*
X1785626Y1917700D01*
X1696755Y1811055D02*
Y1739957D01*
Y1775506D01*
X1803400D01*
X1696755Y1704409D02*
X1803400D01*
Y1651086D01*
X1785626Y1633312D01*
X1767851D01*
X1750077Y1651086D01*
Y1704409D01*
Y1651086D01*
X1732303Y1633312D01*
X1714529D01*
X1696755Y1651086D01*
Y1704409D01*
Y1597764D02*
X1714529D01*
X1750077Y1562215D01*
X1714529Y1526666D01*
X1696755D01*
X1750077Y1562215D02*
X1803400D01*
X1549400Y1917700D02*
X1478303D01*
X1442755Y1882151D01*
X1478303Y1846603D01*
X1549400D01*
X1496077D01*
Y1917700D01*
X1442755Y1811055D02*
Y1775506D01*
Y1793280D01*
X1549400D01*
Y1811055D01*
Y1775506D01*
Y1722183D02*
X1442755D01*
X1549400Y1651086D01*
X1442755D01*
X1549400Y1615538D02*
Y1579989D01*
Y1597764D01*
X1442755D01*
X1460529Y1615538D01*
X1295400Y1917700D02*
X1224303D01*
X1188755Y1882151D01*
X1224303Y1846603D01*
X1295400D01*
X1242077D01*
Y1917700D01*
X1188755Y1811055D02*
Y1775506D01*
Y1793280D01*
X1295400D01*
Y1811055D01*
Y1775506D01*
Y1722183D02*
X1188755D01*
X1295400Y1651086D01*
X1188755D01*
X1295400Y1544441D02*
Y1615538D01*
X1224303Y1544441D01*
X1206529D01*
X1188755Y1562215D01*
Y1597764D01*
X1206529Y1615538D01*
X1054100Y1917700D02*
X947455D01*
Y1864377D01*
X965229Y1846603D01*
X1000777D01*
X1018551Y1864377D01*
Y1917700D01*
X947455Y1811055D02*
X1054100D01*
X1018551Y1775506D01*
X1054100Y1739957D01*
X947455D01*
X1054100Y1704409D02*
X947455D01*
X983003Y1668861D01*
X947455Y1633312D01*
X1054100D01*
Y1597764D02*
X983003D01*
X947455Y1562215D01*
X983003Y1526666D01*
X1054100D01*
X1000777D01*
Y1597764D01*
%TF.MD5,13531135cd667299c55ca574d33d855e*%
M02*
