M48
;Layer_Color=9474304
;FILE_FORMAT=4:4
METRIC,LZ
;TYPE=PLATED
T1F00S00C0.3000
T2F00S00C1.1000
%
T01
X00139425Y00123962
X00145775
X00152125
Y00130312
Y00136662
Y00143012
Y00149362
Y00155712
X0015875Y0015621
Y0014986
Y0014351
X001651
Y0013716
X0017145
Y0013081
Y0012446
X001651
X0015875
Y0013081
X001651
X0015875Y0013716
X00145775Y00136662
Y00130312
X00139425
Y00136662
Y00143012
X00145775
Y00149362
X00139425
X0014478Y0016891
X0015875
Y0016256
X001651
Y0015621
Y0014986
X0017145
Y0014351
X001778
X0018415
X001905
Y0013716
X0019685
Y0013081
Y0012446
X002032
X0020955
Y0013081
X002032
Y0013716
X0020955
Y0014351
X002032
X0019685
Y0014986
Y0015621
Y0016256
X002032
X0020955
Y0016891
Y0015621
X002032
Y0014986
X0020955
X001905
Y0015621
Y0016256
Y0016891
X0018415
X001778
Y0016256
X0018415
Y0015621
X001778
Y0014986
X0018415
Y0013716
Y0013081
Y0012446
X001778
Y0013081
Y0013716
X001905Y0013081
Y0012446
X0018415Y0009779
X0022733Y0011049
X0026924Y0011557
X00238705Y0018415
X0019812Y0017272
X0017145Y0016891
Y0016256
Y0015621
X001651Y0016891
X0016383Y0020193
X00125119Y00138579
T02
X0009906Y0008636
X0012446
X0014986
X0017526
X0020066
X0022606
X0025146
Y0020955
X0022606
X0020066
X0017526
X0014986
X0012446
X0009906
M30
