G04*
G04 #@! TF.GenerationSoftware,Altium Limited,Altium Designer,23.2.1 (34)*
G04*
G04 Layer_Color=255*
%FSLAX44Y44*%
%MOMM*%
G71*
G04*
G04 #@! TF.SameCoordinates,7A8B7A28-FB81-42DE-AEC7-513869FFDE84*
G04*
G04*
G04 #@! TF.FilePolarity,Positive*
G04*
G01*
G75*
%ADD15R,1.5500X1.5000*%
%ADD16R,1.4562X1.3046*%
%ADD17O,0.4500X1.6000*%
%ADD18R,1.0065X1.4082*%
%ADD19R,0.8000X1.1430*%
%ADD20R,0.9100X1.2200*%
%ADD21R,1.4000X1.5500*%
%ADD22R,1.5000X1.5500*%
%ADD35C,1.6000*%
%ADD36R,1.6000X1.6000*%
D15*
X227330Y166150D02*
D03*
Y184150D02*
D03*
X250190Y184260D02*
D03*
Y166260D02*
D03*
D16*
X227330Y125342D02*
D03*
Y141358D02*
D03*
D17*
X209740Y185590D02*
D03*
X138240Y111590D02*
D03*
X144740D02*
D03*
X151240D02*
D03*
X157740D02*
D03*
X164240D02*
D03*
X170740D02*
D03*
X177240D02*
D03*
X183740D02*
D03*
X190240D02*
D03*
X196740D02*
D03*
X203240D02*
D03*
X209740D02*
D03*
X138240Y185590D02*
D03*
X144740D02*
D03*
X151240D02*
D03*
X157740D02*
D03*
X164240D02*
D03*
X170740D02*
D03*
X177240D02*
D03*
X183740D02*
D03*
X190240D02*
D03*
X196740D02*
D03*
X203240D02*
D03*
D18*
X265430Y146050D02*
D03*
X246413D02*
D03*
D19*
X256540Y107188D02*
D03*
X246888Y129032D02*
D03*
X266192D02*
D03*
D20*
X87790Y177800D02*
D03*
X120490D02*
D03*
D21*
X113640Y147320D02*
D03*
X94640D02*
D03*
D22*
X95140Y118110D02*
D03*
X113140D02*
D03*
D35*
X175260Y86360D02*
D03*
X149860Y209550D02*
D03*
X200660D02*
D03*
X226060D02*
D03*
X175260D02*
D03*
X124460D02*
D03*
X99060D02*
D03*
X149860Y86360D02*
D03*
X200660D02*
D03*
X226060D02*
D03*
X124460D02*
D03*
X99060D02*
D03*
D36*
X251460Y209550D02*
D03*
Y86360D02*
D03*
M02*
